<svg width="2000" height="622" viewBox="0 0 2000 622" fill="none" xmlns="http://www.w3.org/2000/svg">
<mask id="mask0_1_138" style="mask-type:luminance" maskUnits="userSpaceOnUse" x="13" y="0" width="1206" height="622">
<path d="M1218.67 0H13.3333V621.333H1218.67V0Z" fill="white"/>
</mask>
<g mask="url(#mask0_1_138)">
<path d="M147.577 474.791C125.145 474.791 105.598 471.208 88.9314 464.041C72.2752 456.875 59.3533 446.911 50.1606 434.146C40.9783 421.385 36.3898 406.432 36.3898 389.291H105.994C106.312 399.265 110.207 407.208 117.681 413.125C125.15 419.041 135.431 422 148.515 422C159.723 422 168.437 419.906 174.661 415.708C180.895 411.5 184.015 405.812 184.015 398.646C184.015 390.854 179.806 384.39 171.39 379.25C162.984 374.114 149.286 369.989 130.286 366.875C99.145 361.265 76.2544 352.229 61.6189 339.771C46.9783 327.312 39.6606 310.969 39.6606 290.729C39.6606 266.745 48.6085 248.37 66.5148 235.604C84.4314 222.828 109.895 216.437 142.911 216.437C175.603 216.437 201.213 223.453 219.744 237.479C238.286 251.495 248.332 271.427 249.89 297.271H182.14C181.515 287.927 177.692 280.682 170.681 275.541C163.681 270.406 154.265 267.833 142.431 267.833C131.848 267.833 123.515 269.864 117.431 273.916C111.359 277.958 108.327 283.562 108.327 290.729C108.327 298.203 112.296 304.041 120.244 308.25C128.187 312.458 142.588 316.739 163.452 321.083C223.879 333.239 254.098 359.245 254.098 399.104C254.098 422.469 244.671 440.927 225.827 454.479C206.978 468.021 180.895 474.791 147.577 474.791Z" fill="white"/>
<path d="M383.001 474.791C355.902 474.791 331.991 469.338 311.272 458.437C290.564 447.536 274.366 432.354 262.689 412.896C251.022 393.427 245.189 370.916 245.189 345.375C245.189 319.849 251.022 297.432 262.689 278.125C274.366 258.807 290.564 243.698 311.272 232.791C331.991 221.89 355.902 216.437 383.001 216.437C410.095 216.437 434.001 221.89 454.71 232.791C475.418 243.698 491.527 258.807 503.043 278.125C514.569 297.432 520.335 319.849 520.335 345.375C520.335 370.916 514.569 393.427 503.043 412.896C491.527 432.354 475.418 447.536 454.71 458.437C434.001 469.338 410.095 474.791 383.001 474.791ZM315.251 345.375C315.251 365.323 321.553 381.677 334.168 394.437C346.777 407.203 363.053 413.583 383.001 413.583C402.928 413.583 419.126 407.203 431.585 394.437C444.043 381.677 450.272 365.323 450.272 345.375C450.272 325.14 444.043 308.719 431.585 296.104C419.126 283.495 402.928 277.187 383.001 277.187C363.053 277.187 346.777 283.495 334.168 296.104C321.553 308.719 315.251 325.14 315.251 345.375Z" fill="white"/>
<path d="M625.416 474.791C593.65 474.791 568.655 464.75 550.436 444.666C532.212 424.573 523.103 397.552 523.103 363.604V222.979H594.103V356.604C594.103 374.661 598.384 388.677 606.957 398.646C615.525 408.604 627.28 413.583 642.228 413.583C658.421 413.583 671.343 407.979 680.999 396.771C690.65 385.562 695.478 370.307 695.478 351V222.979H766.499V468.25H713.707L706.228 440.687C696.572 452.219 684.739 460.786 670.728 466.396C656.712 471.989 641.608 474.791 625.416 474.791Z" fill="white"/>
<path d="M791.211 468.25V222.979H844.003L853.357 255.687C861.451 244.161 871.42 235.828 883.253 230.687C895.086 225.552 910.029 222.979 928.086 222.979H954.732V287.458H927.628C907.378 287.458 891.409 292.911 879.732 303.812C868.066 314.719 862.232 333.406 862.232 359.875V468.25H791.211Z" fill="white"/>
<path d="M1076.62 474.791C1050.47 474.791 1027.27 469.26 1007.02 458.208C986.768 447.156 970.961 431.896 959.601 412.437C948.237 392.969 942.56 370.614 942.56 345.375C942.56 320.156 948.237 297.89 959.601 278.583C970.961 259.281 986.768 244.099 1007.02 233.041C1027.27 221.974 1050.47 216.437 1076.62 216.437C1099.36 216.437 1119.99 220.573 1138.52 228.833C1157.06 237.083 1172.4 248.765 1184.54 263.875C1196.69 278.974 1204.63 296.646 1208.37 316.896H1140.16C1134.25 304.437 1125.84 294.708 1114.93 287.708C1104.03 280.698 1091.57 277.187 1077.56 277.187C1058.56 277.187 1042.98 283.495 1030.83 296.104C1018.69 308.719 1012.62 325.14 1012.62 345.375C1012.62 365.323 1018.69 381.677 1030.83 394.437C1042.98 407.203 1058.56 413.583 1077.56 413.583C1092.5 413.583 1105.65 409.62 1117.02 401.687C1128.39 393.745 1136.57 383.078 1141.56 369.687H1210.71C1206.34 391.177 1198.01 409.786 1185.71 425.521C1173.4 441.245 1157.9 453.39 1139.23 461.958C1120.54 470.51 1099.67 474.791 1076.62 474.791Z" fill="white"/>
</g>
<mask id="mask1_1_138" style="mask-type:luminance" maskUnits="userSpaceOnUse" x="1098" y="386" width="78" height="137">
<path d="M1098.78 386.307H1175.11V522.37H1098.78V386.307Z" fill="white"/>
</mask>
<g mask="url(#mask1_1_138)">
<mask id="mask2_1_138" style="mask-type:luminance" maskUnits="userSpaceOnUse" x="1098" y="385" width="78" height="138">
<path d="M1176 385.333H1098.67V522.667H1176V385.333Z" fill="white"/>
</mask>
<g mask="url(#mask2_1_138)">
<mask id="mask3_1_138" style="mask-type:luminance" maskUnits="userSpaceOnUse" x="1098" y="386" width="78" height="137">
<path d="M1098.78 386.307H1175.11V522.37H1098.78V386.307Z" fill="white"/>
</mask>
<g mask="url(#mask3_1_138)">
<path d="M1098.78 386.307H1175.11V522.276H1098.78V386.307Z" fill="black"/>
</g>
</g>
</g>
<mask id="mask4_1_138" style="mask-type:luminance" maskUnits="userSpaceOnUse" x="1108" y="380" width="58" height="150">
<path d="M1108 380H1165.33V529.333H1108V380Z" fill="white"/>
</mask>
<g mask="url(#mask4_1_138)">
<mask id="mask5_1_138" style="mask-type:luminance" maskUnits="userSpaceOnUse" x="1076" y="380" width="122" height="149">
<path d="M1076.7 404.203L1163.26 380.51L1197.22 504.594L1110.67 528.286L1076.7 404.203Z" fill="white"/>
</mask>
<g mask="url(#mask5_1_138)">
<mask id="mask6_1_138" style="mask-type:luminance" maskUnits="userSpaceOnUse" x="1108" y="380" width="58" height="149">
<path d="M1108.83 395.406L1163.26 380.51L1165.06 513.271L1110.64 528.167L1108.83 395.406Z" fill="white"/>
</mask>
<g mask="url(#mask6_1_138)">
<mask id="mask7_1_138" style="mask-type:luminance" maskUnits="userSpaceOnUse" x="1108" y="380" width="58" height="150">
<path d="M1165.33 380H1108V529.333H1165.33V380Z" fill="white"/>
</mask>
<g mask="url(#mask7_1_138)">
<mask id="mask8_1_138" style="mask-type:luminance" maskUnits="userSpaceOnUse" x="1108" y="380" width="58" height="149">
<path d="M1108.68 380.391H1165.26V528.396H1108.68V380.391Z" fill="white"/>
</mask>
<g mask="url(#mask8_1_138)">
<mask id="mask9_1_138" style="mask-type:luminance" maskUnits="userSpaceOnUse" x="1076" y="380" width="122" height="149">
<path d="M1076.7 404.203L1163.26 380.51L1197.22 504.594L1110.67 528.286L1076.7 404.203Z" fill="white"/>
</mask>
<g mask="url(#mask9_1_138)">
<mask id="mask10_1_138" style="mask-type:luminance" maskUnits="userSpaceOnUse" x="1108" y="380" width="58" height="149">
<path d="M1108.83 395.406L1163.26 380.51L1165.06 513.271L1110.64 528.167L1108.83 395.406Z" fill="white"/>
</mask>
<g mask="url(#mask10_1_138)">
<path d="M1076.7 404.203L1163.26 380.51L1197.22 504.594L1110.67 528.286L1076.7 404.203Z" fill="#E6FF4B"/>
</g>
</g>
</g>
</g>
</g>
</g>
</g>
<mask id="mask11_1_138" style="mask-type:luminance" maskUnits="userSpaceOnUse" x="1496" y="0" width="422" height="622">
<path d="M1918 0H1496.67V621.333H1918V0Z" fill="white"/>
</mask>
<g mask="url(#mask11_1_138)">
<path d="M1506.24 468.25L1636.11 141.229H1708.99L1838.86 468.25H1759.45L1737.49 411.729H1607.61L1585.65 468.25H1506.24ZM1626.76 353.333H1718.8L1672.55 233.729L1626.76 353.333Z" fill="white"/>
<path d="M1836.02 468.25V141.229H1910.29V468.25H1836.02Z" fill="white"/>
</g>
<mask id="mask12_1_138" style="mask-type:luminance" maskUnits="userSpaceOnUse" x="1852" y="162" width="104" height="149">
<path d="M1852.14 162.078H1955.82V310.667H1852.14V162.078Z" fill="white"/>
</mask>
<g mask="url(#mask12_1_138)">
<mask id="mask13_1_138" style="mask-type:luminance" maskUnits="userSpaceOnUse" x="1852" y="162" width="104" height="149">
<path d="M1890.63 162.078H1955.82L1917.33 310.578H1852.14L1890.63 162.078Z" fill="white"/>
</mask>
<g mask="url(#mask13_1_138)">
<mask id="mask14_1_138" style="mask-type:luminance" maskUnits="userSpaceOnUse" x="1851" y="161" width="106" height="150">
<path d="M1956.67 161.333H1851.33V310.667H1956.67V161.333Z" fill="white"/>
</mask>
<g mask="url(#mask14_1_138)">
<mask id="mask15_1_138" style="mask-type:luminance" maskUnits="userSpaceOnUse" x="1852" y="162" width="104" height="149">
<path d="M1852.14 162.078H1955.82V310.667H1852.14V162.078Z" fill="white"/>
</mask>
<g mask="url(#mask15_1_138)">
<mask id="mask16_1_138" style="mask-type:luminance" maskUnits="userSpaceOnUse" x="1852" y="162" width="104" height="149">
<path d="M1890.63 162.078H1955.82L1917.33 310.578H1852.14L1890.63 162.078Z" fill="white"/>
</mask>
<g mask="url(#mask16_1_138)">
<path d="M1852.14 162.078H1955.82V310.719H1852.14V162.078Z" fill="black"/>
</g>
</g>
</g>
</g>
</g>
<mask id="mask17_1_138" style="mask-type:luminance" maskUnits="userSpaceOnUse" x="1868" y="174" width="96" height="125">
<path d="M1868.25 174.047H1963.85V298.667H1868.25V174.047Z" fill="white"/>
</mask>
<g mask="url(#mask17_1_138)">
<mask id="mask18_1_138" style="mask-type:luminance" maskUnits="userSpaceOnUse" x="1868" y="174" width="96" height="125">
<path d="M1900.54 174.047H1963.85L1931.56 298.609H1868.25L1900.54 174.047Z" fill="white"/>
</mask>
<g mask="url(#mask18_1_138)">
<mask id="mask19_1_138" style="mask-type:luminance" maskUnits="userSpaceOnUse" x="1867" y="173" width="98" height="126">
<path d="M1964.67 173.333H1867.33V298.667H1964.67V173.333Z" fill="white"/>
</mask>
<g mask="url(#mask19_1_138)">
<mask id="mask20_1_138" style="mask-type:luminance" maskUnits="userSpaceOnUse" x="1868" y="174" width="96" height="125">
<path d="M1868.25 174.047H1963.85V298.667H1868.25V174.047Z" fill="white"/>
</mask>
<g mask="url(#mask20_1_138)">
<mask id="mask21_1_138" style="mask-type:luminance" maskUnits="userSpaceOnUse" x="1868" y="174" width="96" height="125">
<path d="M1900.54 174.047H1963.85L1931.56 298.609H1868.25L1900.54 174.047Z" fill="white"/>
</mask>
<g mask="url(#mask21_1_138)">
<path d="M1868.25 174.047H1963.85V298.771H1868.25V174.047Z" fill="#E6FF4B"/>
</g>
</g>
</g>
</g>
</g>
<mask id="mask22_1_138" style="mask-type:luminance" maskUnits="userSpaceOnUse" x="1070" y="0" width="539" height="622">
<path d="M1608.67 0H1070V621.333H1608.67V0Z" fill="white"/>
</mask>
<g mask="url(#mask22_1_138)">
<path d="M1411.27 461.967C1387.19 472.15 1363.77 476.129 1341.02 473.905C1318.27 471.671 1297.94 463.775 1280.04 450.217C1262.16 436.65 1248.24 418.103 1238.29 394.572C1228.37 371.061 1224.88 348.197 1227.83 325.988C1230.78 303.77 1239.39 283.728 1253.65 265.863C1267.91 248.004 1287.23 233.921 1311.63 223.613C1337.44 212.712 1362.17 209.03 1385.81 212.572C1409.45 216.103 1430.57 226.108 1449.19 242.592C1467.81 259.066 1482.23 281.379 1492.44 309.53L1311.27 386.051C1320.96 400.217 1332.84 409.15 1346.92 412.842C1361 416.525 1375.5 415.217 1390.42 408.926C1401.32 404.316 1410.4 398.025 1417.67 390.051C1424.94 382.082 1429.74 373.207 1432.06 363.426L1498.33 335.447C1498.63 363.379 1491.15 388.509 1475.9 410.842C1460.66 433.165 1439.12 450.207 1411.27 461.967ZM1294.23 344.551L1411.73 294.926C1402.17 282.749 1390.64 274.863 1377.13 271.28C1363.61 267.686 1349.26 269.103 1334.06 275.53C1319.7 281.587 1308.94 290.775 1301.79 303.092C1294.65 315.4 1292.13 329.217 1294.23 344.551Z" fill="white"/>
</g>
</svg>
